<svg width="137" height="33" viewBox="0 0 137 33" fill="none" xmlns="http://www.w3.org/2000/svg">
<path id="Union" fill-rule="evenodd" clip-rule="evenodd" d="M91.5582 5.68952H91.559V5.69504L91.5582 5.68952ZM91.5582 5.68952H88.9587C88.887 5.26444 88.749 4.88351 88.5502 4.55228C88.3515 4.22104 88.103 3.93949 87.8049 3.70762C87.5068 3.47575 87.17 3.29909 86.7946 3.18316C86.4192 3.06723 86.0107 3.0065 85.5746 3.0065C84.8017 3.0065 84.1171 3.19972 83.5154 3.58617C82.9192 3.97261 82.4499 4.54123 82.1131 5.281C81.7764 6.02076 81.6052 6.93166 81.6052 8.00267C81.6052 9.07367 81.7764 10.0067 82.1187 10.7519C82.4609 11.4972 82.9247 12.0548 83.5209 12.4357C84.1171 12.8111 84.8017 13.0043 85.5691 13.0043C85.9941 13.0043 86.3972 12.9491 86.767 12.8332C87.1424 12.7173 87.4737 12.5517 87.7773 12.3308C88.0754 12.11 88.3294 11.834 88.5336 11.5083C88.7379 11.1825 88.8814 10.8127 88.9587 10.3931L91.559 10.4097C91.4596 11.0887 91.2498 11.7236 90.9296 12.3143C90.6094 12.905 90.1843 13.4294 89.6654 13.8821C89.1464 14.3348 88.5392 14.6881 87.8436 14.9366C87.148 15.185 86.3751 15.3175 85.5304 15.3175C84.2772 15.3175 83.1621 15.0304 82.1794 14.4508C81.1967 13.8711 80.4238 13.0375 79.8552 11.9389C79.2921 10.8458 79.005 9.53188 79.005 8.00267C79.005 6.47345 79.2921 5.15402 79.8607 4.06646C80.4294 2.97338 81.2078 2.13976 82.1904 1.5601C83.1731 0.980432 84.2828 0.693359 85.5304 0.693359C86.3254 0.693359 87.0596 0.803772 87.7387 1.0246C88.4177 1.24542 89.025 1.57114 89.5605 2.00175C90.096 2.43236 90.5321 2.95682 90.8799 3.57512C91.2269 4.192 91.4475 4.8968 91.5582 5.68952ZM61.3556 3.38188C61.8359 3.71863 62.1064 4.19341 62.1727 4.80068L62.1837 4.8062H64.668C64.657 4.00571 64.4306 3.29355 63.9945 2.67524C63.5583 2.05693 62.9566 1.57111 62.1948 1.22331C61.4329 0.875513 60.533 0.698853 59.5338 0.698853C58.5346 0.698853 57.6458 0.875513 56.8563 1.22331C56.0669 1.57111 55.4485 2.06245 54.9903 2.6918C54.5321 3.32115 54.3058 4.05539 54.3058 4.89453C54.3058 5.91584 54.6425 6.72737 55.3216 7.34568C56.0006 7.96399 56.9281 8.41668 58.0984 8.72032L59.716 9.13988C60.2239 9.27238 60.6711 9.41592 61.052 9.58154C61.4329 9.74715 61.731 9.95142 61.9463 10.1943C62.1561 10.4372 62.272 10.7464 62.272 11.1163C62.2665 11.5248 62.1451 11.8781 61.9022 12.1817C61.6593 12.4854 61.328 12.7172 60.9029 12.8884C60.4778 13.0595 59.9644 13.1423 59.4234 13.1423C58.8824 13.1423 58.3966 13.0595 57.9659 12.8994C57.5298 12.7338 57.182 12.4909 56.9115 12.1597C56.641 11.8339 56.4919 11.4199 56.4533 10.923H53.9138C53.9524 11.8726 54.1954 12.6731 54.6536 13.33C55.1118 13.987 55.7467 14.4894 56.5582 14.8316C57.3697 15.1739 58.3027 15.3451 59.44 15.3451C60.5772 15.3451 61.5488 15.1684 62.3549 14.8151C63.1553 14.4618 63.7737 13.9704 64.1987 13.3356C64.6238 12.7007 64.8391 11.9664 64.8391 11.1328C64.8391 10.52 64.7232 9.97902 64.4913 9.52081C64.2595 9.0626 63.9448 8.67063 63.5473 8.34492C63.1498 8.0192 62.7027 7.75421 62.2058 7.53891C61.7089 7.3236 61.19 7.15798 60.6545 7.03101L59.3185 6.69977C59.0314 6.628 58.7388 6.53967 58.4518 6.4403C58.1647 6.33541 57.8997 6.20843 57.6678 6.05938C57.436 5.91032 57.2483 5.72262 57.1102 5.50732C56.9722 5.28649 56.906 5.03254 56.906 4.73443C56.9115 4.37559 57.0164 4.05539 57.2207 3.77936C57.4249 3.49781 57.7175 3.27698 58.104 3.11689C58.4904 2.95679 58.9541 2.87398 59.4896 2.87398C60.2515 2.87398 60.8753 3.04512 61.3556 3.38188ZM0.970703 3.05058V0.886499H12.3322V3.05058H7.93222V15.1297H5.37617V3.05058H0.976225H0.970703ZM13.8891 15.1242V0.886499H19.2275C20.3206 0.886499 21.2426 1.0742 21.9823 1.45512C22.7276 1.83605 23.2907 2.36603 23.6716 3.05058C24.0526 3.73514 24.2458 4.53011 24.2458 5.44101C24.2458 6.35192 24.0526 7.14689 23.6661 7.81488C23.2797 8.48288 22.7111 9.00181 21.9603 9.36618C21.8721 9.40894 21.7817 9.4492 21.6888 9.48694L24.7703 15.1242H21.894L19.0988 9.91272H16.4727V15.1297H13.8946L13.8891 15.1242ZM18.8466 7.77072H16.4727V3.04506H18.8356C19.4815 3.04506 20.0059 3.13891 20.4145 3.32661C20.823 3.51432 21.1266 3.79035 21.3254 4.14919C21.5241 4.50803 21.6235 4.94416 21.6235 5.44653C21.6235 5.94891 21.5186 6.37952 21.3254 6.7218C21.1322 7.06408 20.8285 7.32907 20.42 7.50573C20.0115 7.68239 19.487 7.77072 18.8466 7.77072ZM25.7196 15.1242H28.4689L29.6472 11.6131H35.0011L36.1812 15.1242H38.936L33.9177 0.886499H30.7323L25.7196 15.1242ZM34.3053 9.54284L32.3775 3.80691H32.2671L30.342 9.54284H34.3053ZM52.0424 0.886499V15.1242H49.7458L43.0382 5.42445H42.9223V15.1242H40.3442V0.886499H42.6518L49.3538 10.5918H49.4808V0.886499H52.0424ZM68.2339 15.1242H65.4846L70.4973 0.886499H73.6827L78.701 15.1242H75.9462L74.7661 11.6131H69.4122L68.2339 15.1242ZM72.1425 3.80691L74.0703 9.54284H70.107L72.0321 3.80691H72.1425ZM92.4811 3.05058V0.886499H103.843V3.05058H99.4426V15.1297H96.8865V3.05058H92.4866H92.4811ZM107.977 15.1242V0.886499H105.399V15.1242H107.977ZM123.115 8.00819C123.115 9.54292 122.828 10.8568 122.254 11.9444C121.679 13.032 120.901 13.8711 119.918 14.4508C118.936 15.0304 117.815 15.3175 116.573 15.3175C115.331 15.3175 114.21 15.0249 113.227 14.4452C112.245 13.8656 111.466 13.0264 110.892 11.9333C110.318 10.8403 110.031 9.53188 110.031 8.00267C110.031 6.47345 110.318 5.15402 110.892 4.06646C111.466 2.9789 112.245 2.13976 113.227 1.5601C114.21 0.980432 115.331 0.693359 116.573 0.693359C117.815 0.693359 118.936 0.985953 119.918 1.5601C120.901 2.13976 121.679 2.97338 122.254 4.06646C122.828 5.15954 123.115 6.47345 123.115 8.00267V8.00819ZM120.52 8.00819C120.52 6.92614 120.354 6.01524 120.018 5.26996C119.681 4.52467 119.217 3.96157 118.626 3.58065C118.036 3.19972 117.351 3.0065 116.573 3.0065C115.794 3.0065 115.115 3.19972 114.519 3.58065C113.923 3.96157 113.459 4.52467 113.128 5.26996C112.791 6.01524 112.626 6.92614 112.626 8.00819C112.626 9.09023 112.791 10.0011 113.128 10.7464C113.465 11.4917 113.928 12.0548 114.519 12.4357C115.11 12.8166 115.794 13.0099 116.573 13.0099C117.351 13.0099 118.03 12.8166 118.626 12.4357C119.223 12.0548 119.686 11.4917 120.018 10.7464C120.349 10.0011 120.52 9.09023 120.52 8.00819ZM136.85 15.1242V0.886499H134.289V10.5918H134.162L127.46 0.886499H125.152V15.1242H127.73V5.42445H127.846L134.554 15.1242H136.85ZM0.970703 20.7279V18.5638H12.3322V20.7279H7.93222V32.807H5.37617V20.7279H0.976225H0.970703ZM25.2665 29.6214C25.8406 28.5339 26.1277 27.22 26.1277 25.6852V25.6797C26.1277 24.1505 25.8406 22.8366 25.2665 21.7435C24.6923 20.6504 23.9139 19.8168 22.9312 19.2372C21.9486 18.6575 20.8279 18.3704 19.5857 18.3704C18.3436 18.3704 17.2229 18.6575 16.2402 19.2372C15.2576 19.8168 14.4792 20.6504 13.905 21.7435C13.3309 22.8311 13.0438 24.1505 13.0438 25.6797C13.0438 27.2089 13.3309 28.5173 13.905 29.6104C14.4792 30.7035 15.2576 31.5426 16.2402 32.1223C17.2229 32.702 18.3436 32.9945 19.5857 32.9945C20.8279 32.9945 21.9486 32.7075 22.9312 32.1278C23.9139 31.5481 24.6923 30.7145 25.2665 29.6214ZM23.0306 22.947C23.3674 23.6923 23.533 24.6032 23.533 25.6852C23.533 26.7673 23.3674 27.6782 23.0306 28.4235C22.6939 29.1688 22.2246 29.7319 21.6339 30.1128C21.0377 30.4937 20.3586 30.6869 19.5802 30.6869C18.8018 30.6869 18.1173 30.4937 17.5265 30.1128C16.9358 29.7319 16.4721 29.1688 16.1354 28.4235C15.7986 27.6782 15.633 26.7673 15.633 25.6852C15.633 24.6032 15.7986 23.6923 16.1354 22.947C16.4666 22.2017 16.9358 21.6386 17.5265 21.2577C18.1228 20.8768 18.8018 20.6836 19.5802 20.6836C20.3586 20.6836 21.0432 20.8768 21.6339 21.2577C22.2301 21.6386 22.6939 22.2017 23.0306 22.947ZM40.7138 25.6852C40.7138 27.2199 40.4267 28.5338 39.8526 29.6214C39.2784 30.7145 38.5 31.5481 37.5174 32.1278C36.5347 32.7074 35.414 32.9945 34.1719 32.9945C32.9297 32.9945 31.809 32.7019 30.8263 32.1222C29.8437 31.5426 29.0653 30.7034 28.4911 29.6104C27.917 28.5173 27.6299 27.2089 27.6299 25.6797C27.6299 24.1505 27.917 22.831 28.4911 21.7435C29.0653 20.6504 29.8437 19.8168 30.8263 19.2371C31.809 18.6574 32.9297 18.3704 34.1719 18.3704C35.414 18.3704 36.5347 18.6574 37.5174 19.2371C38.5 19.8168 39.2784 20.6504 39.8526 21.7435C40.4267 22.8365 40.7138 24.1505 40.7138 25.6797V25.6852ZM38.1191 25.6852C38.1191 24.6031 37.9535 23.6922 37.6167 22.947C37.28 22.2017 36.8162 21.6386 36.22 21.2576C35.6293 20.8767 34.9447 20.6835 34.1663 20.6835C33.3879 20.6835 32.7089 20.8767 32.1126 21.2576C31.5219 21.6386 31.0527 22.2017 30.7215 22.947C30.3847 23.6922 30.2191 24.6031 30.2191 25.6852C30.2191 26.7672 30.3847 27.6781 30.7215 28.4234C31.0582 29.1687 31.5219 29.7318 32.1126 30.1127C32.7034 30.4937 33.3879 30.6869 34.1663 30.6869C34.9447 30.6869 35.6238 30.4937 36.22 30.1127C36.8107 29.7318 37.28 29.1687 37.6167 28.4234C37.9535 27.6781 38.1191 26.7672 38.1191 25.6852ZM42.7451 18.5638V32.8015V32.807H51.5947V30.6429H45.3232V18.5638H42.7451Z" fill="white"/>
</svg>
