<svg width="300" height="300" viewBox="0 0 300 300" fill="none" xmlns="http://www.w3.org/2000/svg">
<rect x="9.5" y="9.5" width="281" height="281" rx="55.5" fill="url(#paint0_linear_2069_7051)"/>
<rect x="9.5" y="9.5" width="281" height="281" rx="55.5" stroke="white" stroke-width="19"/>
<path fill-rule="evenodd" clip-rule="evenodd" d="M221.382 93.5419C221.382 89.4527 226.023 87.0926 229.327 89.5018L259.456 111.469C262.196 113.467 262.195 117.555 259.454 119.551L229.325 141.497C226.021 143.904 221.382 141.544 221.382 137.456V131.727C221.382 128.966 219.143 126.727 216.382 126.727H182.764C180.002 126.727 177.764 128.966 177.764 131.727V245.375C177.764 248.136 175.525 250.375 172.764 250.375H160.94C158.178 250.375 155.94 248.136 155.94 245.375V109.265C155.94 106.504 158.178 104.265 160.94 104.265H216.382C219.143 104.265 221.382 102.027 221.382 99.2651V93.5419ZM90.5279 109.265C90.5279 106.504 92.7665 104.265 95.5279 104.265H107.322C110.083 104.265 112.322 106.504 112.322 109.265V121.727C112.322 124.488 110.083 126.727 107.322 126.727H95.5279C92.7665 126.727 90.5279 124.488 90.5279 121.727V109.265Z" fill="white"/>
<path d="M85.618 70.5568C82.3043 70.5568 79.618 67.8705 79.618 64.5568V61.8003C79.618 56.8932 74.0481 54.0612 70.0831 56.9522L42.6524 76.9526C39.3647 79.3498 39.3658 84.2549 42.6547 86.6505L70.0853 106.632C74.0507 109.52 79.618 106.688 79.618 101.782V99.0187C79.618 95.705 82.3043 93.0187 85.618 93.0187H117.236C120.55 93.0187 123.236 95.705 123.236 99.0187V244.375C123.236 247.689 125.922 250.375 129.236 250.375H139.03C142.344 250.375 145.03 247.689 145.03 244.375V99.0187C145.03 95.705 147.716 93.0187 151.03 93.0187H204.472C207.786 93.0187 210.472 90.3324 210.472 87.0187V76.5568C210.472 73.2431 207.786 70.5568 204.472 70.5568H85.618Z" fill="white"/>
<defs>
<linearGradient id="paint0_linear_2069_7051" x1="10.5469" y1="5.85937" x2="179.297" y2="251.953" gradientUnits="userSpaceOnUse">
<stop stop-color="#7A21D2"/>
<stop offset="1" stop-color="#111222"/>
</linearGradient>
</defs>
</svg>
